<?xml version="1.0" standalone="no"?>
<!DOCTYPE svg PUBLIC "-//W3C//DTD SVG 20010904//EN"
 "http://www.w3.org/TR/2001/REC-SVG-20010904/DTD/svg10.dtd">
<svg version="1.0" xmlns="http://www.w3.org/2000/svg"
 width="150.000000pt" height="150.000000pt" viewBox="0 0 150.000000 150.000000"
 preserveAspectRatio="xMidYMid meet">
<metadata>
Created by potrace 1.14, written by Peter Selinger 2001-2017
</metadata>
<g transform="translate(0.000000,150.000000) scale(0.100000,-0.100000)"
fill="#000000" stroke="none">
<path d="M0 750 l0 -750 750 0 750 0 0 750 0 750 -750 0 -750 0 0 -750z m1298
222 c30 -13 73 -74 61 -86 -2 -2 -40 -8 -84 -14 -72 -8 -83 -7 -106 11 -23 16
-36 18 -87 12 -33 -4 -69 -13 -79 -21 -17 -13 -17 -15 0 -28 13 -10 47 -12
152 -8 147 5 181 -2 215 -46 14 -17 20 -40 20 -73 0 -92 -76 -136 -274 -158
-149 -17 -238 7 -270 73 -9 18 -16 38 -16 44 0 5 38 13 84 17 77 6 86 5 105
-14 17 -17 34 -21 81 -21 73 0 112 16 108 44 -3 20 -9 21 -148 22 -162 0 -197
10 -225 64 -32 63 -8 127 61 159 100 48 323 60 402 23z m-515 -59 c13 -84 40
-373 35 -378 -2 -2 -38 -6 -79 -7 l-74 -3 -12 105 c-6 58 -12 112 -12 120 -1
8 -26 -41 -57 -110 -30 -69 -58 -128 -62 -132 -4 -3 -24 -8 -44 -10 -37 -3
-38 -2 -119 112 l-81 115 6 -75 c3 -41 9 -96 12 -122 l6 -47 -33 -5 c-19 -3
-54 -7 -79 -8 l-45 -3 -16 155 c-9 85 -20 178 -23 206 l-6 52 88 7 c48 3 96 9
108 11 17 4 33 -13 94 -101 40 -58 76 -102 81 -98 4 4 28 58 54 119 l47 111
96 10 c54 5 100 11 103 11 4 1 9 -15 12 -35z"/>
</g>
</svg>
